<?xml version="1.0" encoding="utf-8"?>
<!-- Generator: Adobe Illustrator 24.0.0, SVG Export Plug-In . SVG Version: 6.00 Build 0)  -->
<svg version="1.1" id="Calque_1" xmlns="http://www.w3.org/2000/svg" xmlns:xlink="http://www.w3.org/1999/xlink" x="0px" y="0px"
	 viewBox="0 0 190 190" style="enable-background:new 0 0 190 190;" xml:space="preserve">
<style type="text/css">
	.st0{fill:#FFDE00;}
	.st1{fill:#7D4E24;}
	.st2{fill:#F4E3D6;}
	.st3{fill:#F3D1BB;}
	.st4{fill:#F5F5F5;}
	.st5{fill:#3C3C3B;}
	.st6{fill:none;}
</style>
<rect class="st0" width="190" height="190"/>
<g>
	<g>
		<path class="st1" d="M87,109.5c-0.4-9.4-8.2-13.6-13.2-20.7c-3-4.3-6.6-9.1-7.8-14.2c-1.4-6-1.4-12.5-2.1-18.6
			c-0.1-0.7-1-0.8-1.3-0.3c0-0.2,0.1-0.4,0.1-0.6c0-0.3-0.3-0.4-0.4-0.1C60,63.3,58.1,71.9,58,80.5c-0.1,10.1,0.1,19.5-2,29.5
			c-0.8,3.6-3.9,10.5,0.2,12.8c3.1,1.8,7,2.6,10.9,2.9c4.8,0.9,9.7,1,14.4,0.8c2.7-0.1,4.3,0.2,5-2.5
			C87.7,119.7,87.2,113.9,87,109.5z"/>
		<path class="st1" d="M129.9,88.3c-0.8-10.8-1.3-22.4-4-33c0,0,0,0,0-0.1c0.2-0.4,0-0.7-0.3-0.9c0-0.1-0.1-0.2-0.1-0.3
			c-0.1-0.3-0.6-0.2-0.5,0.1c0,0.1,0,0.1,0,0.2c-0.1,0.1-0.2,0.1-0.2,0.2c-11.2,21.2-39.2,47.5-21.7,73.1c-0.1,0.3,0.1,0.8,0.5,0.8
			c9.3,0.7,18.6-0.6,27.5-3.4c0.2-0.1,0.5-0.3,0.4-0.6C131.1,112.5,130.7,100.4,129.9,88.3z"/>
		<path class="st2" d="M108.6,123.4c-3.7-5.4-5.9-10.7-5.8-17.4c0-1.4-1.2-2.1-2.3-1.9c-0.1-0.2-0.3-0.3-0.5-0.4
			c-5.6-3.6-12.9-2.7-18.9-0.5c-0.5,0.2-0.8,0.6-0.9,1c-0.7,0.1-1.3,0.7-1.1,1.7c1.8,7.9-1,13.1-4.6,19.7c-2,3.6-2.6,7.4-1.5,11.3
			c2.7,9,12,13.2,20.8,12.7c8.6-0.5,17.1-4.8,18.4-14C112.8,130.9,111.1,127.1,108.6,123.4z"/>
		<path class="st3" d="M124.4,69c0.5-4.2,0.6-8.4,0.1-12.3c-2.6-20.2-29.6-18-44.4-17.9c-8.9,0.1-14.2,4.4-16.6,12.9
			c-1.6,5.8-2.3,11.9-2.2,18.1c-1.4-0.2-2.9,0.2-3.9,1.3c-1.6,1.7-1.6,4.3-1.4,6.4c0.3,2.2,1.1,4.4,3,5.6c1.1,0.6,2.3,0.8,3.4,0.5
			c0.1,0.3,0.1,0.7,0.2,1c0,0.2,0.1,0.4,0.2,0.5c1.1,5.8,3.3,11.3,6.8,16.1c9.3,12.7,26.5,16.2,38.8,5.8
			c6.6-5.5,10.4-13.4,12.6-21.6c0.2-0.7,0.4-1.3,0.5-2c0.2,0.1,0.4,0.1,0.7,0.1C128.7,83.2,129.9,70.6,124.4,69z"/>
		<path class="st1" d="M127.5,71.4c0-10.9-1.5-22.8-10.6-30c-8-6.3-18.7-9-28.7-7.7s-19.1,6-23.6,15.3c-1.7,3.4-2.7,7.1-3.3,10.9
			c-0.3,1.5-0.5,3-0.5,4.5C60.3,71.1,61,77.9,62,84.3c0.1,0.4,0.7,0.4,0.8,0l0,0c3.2-6.1,7-11.7,14.1-13.5c5.6-1.5,11.5-1.2,17.1-3
			c7.3-2.3,12.6-8.1,14.8-15.3c0,0.1,0.1,0.3,0.2,0.4c0.9,3.6,2.6,7,4.9,10c1.3,1.6,2.7,3.2,4.4,4.4c2.6,1.9,7,1.7,8.6,4.8
			c0.2,0.4,0.7,0.1,0.6-0.2C127.4,71.7,127.5,71.5,127.5,71.4z"/>
	</g>
	<g>
		<path class="st4" d="M110.5,126.2c-0.1-0.2-0.3-0.3-0.4-0.4c0-0.9-1.1-1.7-1.8-0.9c-8.1,9.1-25,8.6-33.8,1.1c0,0,0,0-0.1,0
			c-0.1-0.6-1.2,0.3-1.5,0.9c-9.8,20.5-8.3,61.2,23.3,58.4C126.7,182.8,125,145,110.5,126.2z"/>
		<path class="st5" d="M155.8,189.7c-1.7-9.3-3.4-18.6-5.1-28c-1.3-7.3-2-15.2-4.8-22.1c-2.1-5.2-5.7-9.7-11.2-11.3
			c-3.2-1-6.6-0.9-9.9-1.2c-5-0.5-14.3-2.5-15.7-2.9c-0.6,8.3-7.4,21.8-17.2,21.7c-10.5-0.1-17.1-20.1-17.6-20.2
			c-0.3-0.4-16.8,2.8-24.4,4.9c-5.8,1.6-10,4.6-12.4,10.3c-3,7.1-4.4,15.4-5.8,22.9c-1.6,8.2-2.5,17.8-3.3,26.2"/>
	</g>
</g>
<path class="st6" d="M183.5,94.3c0-50.1-40.6-90.7-90.7-90.7S2.1,44.2,2.1,94.3S42.7,185,92.8,185S183.5,144.4,183.5,94.3"/>
<rect id="_x3C_Tranche_x3E_" x="20.5" y="23" class="st6" width="143" height="161"/>
</svg>
